<svg width="88" height="36" viewBox="0 0 88 36" fill="none" xmlns="http://www.w3.org/2000/svg">
<g opacity="0.4" clip-path="url(#clip0_2007_224)">
<path d="M42.3024 3.79663H45.219C47.9533 3.79663 49.8901 5.39247 49.8901 7.65137C49.8901 9.91026 47.9533 11.5173 45.219 11.5173H42.3024V3.79663ZM45.5836 9.5394C46.7684 9.5394 47.6115 8.75272 47.6115 7.65137C47.6115 6.55001 46.7684 5.77457 45.5836 5.77457H44.5126V9.5394H45.5836Z" fill="#242424"/>
<path d="M51.0067 3.79663H53.217V11.5173H51.0067V3.79663Z" fill="#242424"/>
<path d="M58.2071 6.99964H61.8756V10.2812C61.0667 11.1466 59.8704 11.6523 58.64 11.6523C56.293 11.6523 54.322 9.82045 54.322 7.65146C54.322 5.48247 56.293 3.66187 58.64 3.66187C59.8704 3.66187 61.0667 4.16759 61.8756 5.0217L60.2464 6.42649C59.8591 5.932 59.2666 5.63981 58.64 5.63981C57.5349 5.63981 56.6006 6.56134 56.6006 7.65146C56.6006 8.74157 57.5349 9.67435 58.64 9.67435C59.0274 9.67435 59.4033 9.56197 59.7337 9.35968V8.60671H58.2071V6.99964Z" fill="#242424"/>
<path d="M63.1061 3.79663H65.3163V11.5173H63.1061V3.79663Z" fill="#242424"/>
<path d="M68.6089 5.74086H66.2961V3.79663H73.132V5.74086H70.8192V11.5173H68.6089V5.74086Z" fill="#242424"/>
<path d="M78.5551 10.4834H75.8322L75.4334 11.5173H72.9384L75.9461 3.79663H78.4412L81.449 11.5173H78.9539L78.5551 10.4834ZM77.9285 8.87634L77.1994 6.99954L76.4588 8.87634H77.9285Z" fill="#242424"/>
<path d="M88 9.57311V11.5173H82.1439V3.79663H84.3542V9.57311H88Z" fill="#242424"/>
<path d="M41.71 20.7197L42.9404 19.27C43.7379 19.8881 44.6038 20.214 45.5266 20.214C46.1305 20.214 46.4495 20.0117 46.4495 19.6746C46.4495 19.3037 46.176 19.2475 45.0937 19.0003C43.3961 18.6182 42.0859 18.1799 42.0859 16.5728C42.0859 14.9657 43.3164 14.033 45.1734 14.033C46.5292 14.033 47.5888 14.3926 48.4547 15.0781L47.3495 16.6178C46.6204 16.1008 45.8229 15.8423 45.1165 15.8423C44.581 15.8423 44.319 16.0559 44.319 16.348C44.319 16.7414 44.5924 16.865 45.7089 17.101C47.5318 17.4831 48.6711 17.9664 48.6711 19.4386C48.6711 21.0681 47.4065 22.0234 45.4469 22.0234C44.0341 22.0234 42.7012 21.5851 41.71 20.7197Z" fill="#242424"/>
<path d="M51.8726 16.1119V16.9773H55.5981V18.9215H51.8726V19.9442H55.9627V21.8884H49.6624V14.1677H55.9627V16.1119H51.8726Z" fill="#242424"/>
<path d="M59.2895 16.1119V16.9773H63.015V18.9215H59.2895V19.9442H63.3796V21.8884H57.0792V14.1677H63.3796V16.1119H59.2895Z" fill="#242424"/>
<path d="M64.4961 14.1677H67.4127C70.147 14.1677 72.0839 15.7636 72.0839 18.0225C72.0839 20.2814 70.147 21.8884 67.4127 21.8884H64.4961V14.1677ZM67.7773 19.9105C68.9622 19.9105 69.8053 19.1238 69.8053 18.0225C69.8053 16.9211 68.9622 16.1457 67.7773 16.1457H66.7063V19.9105H67.7773Z" fill="#242424"/>
<path d="M41.71 31.0347L42.9404 29.5849C43.7379 30.203 44.6038 30.529 45.5266 30.529C46.1305 30.529 46.4495 30.3267 46.4495 29.9895C46.4495 29.6187 46.176 29.5625 45.0937 29.3152C43.3961 28.9331 42.0859 28.4948 42.0859 26.8878C42.0859 25.2807 43.3164 24.3479 45.1734 24.3479C46.5292 24.3479 47.5888 24.7075 48.4547 25.3931L47.3495 26.9327C46.6204 26.4157 45.8229 26.1573 45.1165 26.1573C44.581 26.1573 44.319 26.3708 44.319 26.663C44.319 27.0563 44.5924 27.1799 45.7089 27.416C47.5318 27.7981 48.6711 28.2813 48.6711 29.7535C48.6711 31.3831 47.4065 32.3383 45.4469 32.3383C44.0341 32.3383 42.7012 31.9 41.71 31.0347Z" fill="#242424"/>
<path d="M51.5535 26.4269H49.2407V24.4827H56.0766V26.4269H53.7638V32.2034H51.5535V26.4269Z" fill="#242424"/>
<path d="M56.9425 28.7757V24.4827H59.1528V28.6633C59.1528 29.6523 59.7794 30.3603 60.668 30.3603C61.5567 30.3603 62.1833 29.6523 62.1833 28.6633V24.4827H64.3936V28.7757C64.3936 30.866 62.8555 32.3382 60.668 32.3382C58.4806 32.3382 56.9425 30.866 56.9425 28.7757Z" fill="#242424"/>
<path d="M65.6809 24.4827H68.5975C71.3319 24.4827 73.2687 26.0785 73.2687 28.3374C73.2687 30.5963 71.3319 32.2034 68.5975 32.2034H65.6809V24.4827ZM68.9621 30.2254C70.147 30.2254 70.9901 29.4388 70.9901 28.3374C70.9901 27.236 70.147 26.4606 68.9621 26.4606H67.8912V30.2254H68.9621Z" fill="#242424"/>
<path d="M74.3853 24.4827H76.5955V32.2034H74.3853V24.4827Z" fill="#242424"/>
<path d="M77.7007 28.3375C77.7007 26.1685 79.6489 24.3479 81.9617 24.3479C84.2745 24.3479 86.2227 26.1685 86.2227 28.3375C86.2227 30.5065 84.2745 32.3383 81.9617 32.3383C79.6489 32.3383 77.7007 30.5065 77.7007 28.3375ZM83.9441 28.3375C83.9441 27.2474 83.0326 26.3258 81.9617 26.3258C80.8907 26.3258 79.9793 27.2474 79.9793 28.3375C79.9793 29.4276 80.8907 30.3604 81.9617 30.3604C83.0326 30.3604 83.9441 29.4388 83.9441 28.3375Z" fill="#242424"/>
<path d="M27.3604 8.20015C25.8774 8.20015 24.4096 8.47548 23.0387 9.01867C21.6696 9.55998 20.424 10.3542 19.3758 11.3562L18.9884 11.7271L18.9011 11.2008C18.4435 8.46237 16.9795 5.96934 14.773 4.16747C12.5646 2.3656 9.75626 1.37476 6.85293 1.37476H0V6.21471C0 9.30524 1.28362 12.2722 3.56983 14.4617C5.85793 16.6513 8.96254 17.8819 12.2001 17.8819H16.0509V29.4124C14.8641 29.9668 14.0419 31.1581 14.0419 32.5385C14.0419 34.4509 15.6142 36.0018 17.5529 36.0018C19.4916 36.0018 21.0639 34.4509 21.0639 32.5385C21.0639 31.1562 20.2417 29.9668 19.053 29.4124V23.001H23.7944C26.7965 23.001 29.6732 21.8603 31.7942 19.8318C33.9133 17.8033 35.1039 15.0536 35.1039 12.1897V8.20202H27.3623L27.3604 8.20015ZM15.768 15.0255H12.202C9.76385 15.0255 7.42448 14.0984 5.70033 12.4482C3.97428 10.7962 3.00207 8.55415 3.00207 6.21471V4.22928H6.85293C9.29104 4.22928 11.6304 5.15644 13.3565 6.8066C15.0825 8.45863 16.0547 10.7007 16.0547 13.0401V15.0255H15.7718H15.768ZM32.1018 11.3338V12.1879C32.1018 14.3007 31.2246 16.3273 29.6656 17.8183C28.1067 19.3092 25.9952 20.1465 23.7944 20.1465H19.053V19.0133C19.053 16.9005 19.9303 14.8738 21.4892 13.3829C23.0482 11.8919 25.1597 11.0547 27.3604 11.0547H32.1018V11.3338Z" fill="#242424"/>
<path d="M16.1136 2.56608C16.2142 2.64849 16.3073 2.73465 16.406 2.81894C16.7839 2.78897 17.1655 2.77024 17.5529 2.77024C21.098 2.77024 24.3489 4.03642 26.8667 6.13236C27.0262 6.12674 27.1857 6.12112 27.3471 6.12112H30.8125C27.6434 2.38065 22.8792 0 17.551 0C15.9598 0 14.4217 0.217274 12.9596 0.612487C14.0875 1.12383 15.1509 1.77752 16.1136 2.5642V2.56608Z" fill="#242424"/>
<path d="M33.2602 21.3209C32.4323 22.1132 31.5132 22.7875 30.5296 23.3381C28.9536 26.483 26.2364 28.976 22.9153 30.289C23.2134 30.9802 23.3786 31.7406 23.3786 32.5386C23.3786 32.7259 23.3691 32.9113 23.3501 33.093C29.1796 31.0439 33.5659 25.9922 34.5951 19.8262C34.1925 20.3544 33.7463 20.8563 33.2602 21.3209Z" fill="#242424"/>
<path d="M3.08561 17.039C3.08561 16.9622 3.08941 16.8873 3.09131 16.8105C2.75141 16.5389 2.42102 16.2542 2.10391 15.9508C1.52286 15.3945 0.998782 14.7895 0.529768 14.1489C0.366467 15.0892 0.277222 16.0538 0.277222 17.039C0.277222 24.4432 5.06611 30.7404 11.7519 33.0911C11.7348 32.9075 11.7235 32.724 11.7235 32.5366C11.7235 31.7387 11.8886 30.9783 12.1868 30.2871C6.85861 28.1799 3.08371 23.0384 3.08371 17.039H3.08561Z" fill="#242424"/>
</g>
<defs>
<clipPath id="clip0_2007_224">
<rect width="88" height="36" fill="white"/>
</clipPath>
</defs>
</svg>
